# xmcd
#
# Track frame offsets: 
#        150
#        14757
#        29112
#
# Disc length: 577 seconds
#
# Revision: 0
# Processed by: cddbd v1.5.1PL0 Copyright (c) Steve Scherf et al.
# Submitted via: ExactAudioCopy v0.95a4
#
DISCID=25023f03
DTITLE=Andreas Ellermann - Eine Träne On The Rocks
DYEAR=1900
DGENRE=Country
TTITLE0=Eine Träne on the Rocks
TTITLE1=Joana
TTITLE2=Country Roads
EXTD=
EXTT0=
EXTT1=
EXTT2=
PLAYORDER=
